%TF.GenerationSoftware,KiCad,Pcbnew,(7.0.0-0)*%
%TF.CreationDate,2023-07-04T15:45:29-07:00*%
%TF.ProjectId,SRIG_Taper_v1,53524947-5f54-4617-9065-725f76312e6b,rev?*%
%TF.SameCoordinates,Original*%
%TF.FileFunction,Other,User*%
%FSLAX46Y46*%
G04 Gerber Fmt 4.6, Leading zero omitted, Abs format (unit mm)*
G04 Created by KiCad (PCBNEW (7.0.0-0)) date 2023-07-04 15:45:29*
%MOMM*%
%LPD*%
G01*
G04 APERTURE LIST*
%ADD10C,0.150000*%
G04 APERTURE END LIST*
D10*
X15000000Y70000000D02*
X15000000Y-78000000D01*
X-50000000Y-28154345D02*
X50000000Y-28154345D01*
X-15000000Y70000000D02*
X-15000000Y-78000000D01*
X-50000000Y-52154345D02*
X50000000Y-52154345D01*
X-50000000Y43845655D02*
X50000000Y43845655D01*
X-50000000Y19845655D02*
X50000000Y19845655D01*
X-50000000Y-4154345D02*
X50000000Y-4154345D01*
X50285714Y-48501487D02*
X51285714Y-51501487D01*
X51285714Y-51501487D02*
X52285714Y-48501487D01*
X53285714Y-50358630D02*
X55571429Y-50358630D01*
X58714286Y-51215773D02*
X58571429Y-51358630D01*
X58571429Y-51358630D02*
X58142857Y-51501487D01*
X58142857Y-51501487D02*
X57857143Y-51501487D01*
X57857143Y-51501487D02*
X57428572Y-51358630D01*
X57428572Y-51358630D02*
X57142857Y-51072916D01*
X57142857Y-51072916D02*
X57000000Y-50787202D01*
X57000000Y-50787202D02*
X56857143Y-50215773D01*
X56857143Y-50215773D02*
X56857143Y-49787202D01*
X56857143Y-49787202D02*
X57000000Y-49215773D01*
X57000000Y-49215773D02*
X57142857Y-48930059D01*
X57142857Y-48930059D02*
X57428572Y-48644345D01*
X57428572Y-48644345D02*
X57857143Y-48501487D01*
X57857143Y-48501487D02*
X58142857Y-48501487D01*
X58142857Y-48501487D02*
X58571429Y-48644345D01*
X58571429Y-48644345D02*
X58714286Y-48787202D01*
X61285715Y-49501487D02*
X61285715Y-51501487D01*
X60000000Y-49501487D02*
X60000000Y-51072916D01*
X60000000Y-51072916D02*
X60142857Y-51358630D01*
X60142857Y-51358630D02*
X60428572Y-51501487D01*
X60428572Y-51501487D02*
X60857143Y-51501487D01*
X60857143Y-51501487D02*
X61142857Y-51358630D01*
X61142857Y-51358630D02*
X61285715Y-51215773D01*
X62285715Y-49501487D02*
X63428572Y-49501487D01*
X62714286Y-48501487D02*
X62714286Y-51072916D01*
X62714286Y-51072916D02*
X62857143Y-51358630D01*
X62857143Y-51358630D02*
X63142858Y-51501487D01*
X63142858Y-51501487D02*
X63428572Y-51501487D01*
X50285714Y-24501487D02*
X51285714Y-27501487D01*
X51285714Y-27501487D02*
X52285714Y-24501487D01*
X53285714Y-26358630D02*
X55571429Y-26358630D01*
X58714286Y-27215773D02*
X58571429Y-27358630D01*
X58571429Y-27358630D02*
X58142857Y-27501487D01*
X58142857Y-27501487D02*
X57857143Y-27501487D01*
X57857143Y-27501487D02*
X57428572Y-27358630D01*
X57428572Y-27358630D02*
X57142857Y-27072916D01*
X57142857Y-27072916D02*
X57000000Y-26787202D01*
X57000000Y-26787202D02*
X56857143Y-26215773D01*
X56857143Y-26215773D02*
X56857143Y-25787202D01*
X56857143Y-25787202D02*
X57000000Y-25215773D01*
X57000000Y-25215773D02*
X57142857Y-24930059D01*
X57142857Y-24930059D02*
X57428572Y-24644345D01*
X57428572Y-24644345D02*
X57857143Y-24501487D01*
X57857143Y-24501487D02*
X58142857Y-24501487D01*
X58142857Y-24501487D02*
X58571429Y-24644345D01*
X58571429Y-24644345D02*
X58714286Y-24787202D01*
X61285715Y-25501487D02*
X61285715Y-27501487D01*
X60000000Y-25501487D02*
X60000000Y-27072916D01*
X60000000Y-27072916D02*
X60142857Y-27358630D01*
X60142857Y-27358630D02*
X60428572Y-27501487D01*
X60428572Y-27501487D02*
X60857143Y-27501487D01*
X60857143Y-27501487D02*
X61142857Y-27358630D01*
X61142857Y-27358630D02*
X61285715Y-27215773D01*
X62285715Y-25501487D02*
X63428572Y-25501487D01*
X62714286Y-24501487D02*
X62714286Y-27072916D01*
X62714286Y-27072916D02*
X62857143Y-27358630D01*
X62857143Y-27358630D02*
X63142858Y-27501487D01*
X63142858Y-27501487D02*
X63428572Y-27501487D01*
X50285714Y47498512D02*
X51285714Y44498512D01*
X51285714Y44498512D02*
X52285714Y47498512D01*
X53285714Y45641369D02*
X55571429Y45641369D01*
X58714286Y44784226D02*
X58571429Y44641369D01*
X58571429Y44641369D02*
X58142857Y44498512D01*
X58142857Y44498512D02*
X57857143Y44498512D01*
X57857143Y44498512D02*
X57428572Y44641369D01*
X57428572Y44641369D02*
X57142857Y44927083D01*
X57142857Y44927083D02*
X57000000Y45212797D01*
X57000000Y45212797D02*
X56857143Y45784226D01*
X56857143Y45784226D02*
X56857143Y46212797D01*
X56857143Y46212797D02*
X57000000Y46784226D01*
X57000000Y46784226D02*
X57142857Y47069940D01*
X57142857Y47069940D02*
X57428572Y47355655D01*
X57428572Y47355655D02*
X57857143Y47498512D01*
X57857143Y47498512D02*
X58142857Y47498512D01*
X58142857Y47498512D02*
X58571429Y47355655D01*
X58571429Y47355655D02*
X58714286Y47212797D01*
X61285715Y46498512D02*
X61285715Y44498512D01*
X60000000Y46498512D02*
X60000000Y44927083D01*
X60000000Y44927083D02*
X60142857Y44641369D01*
X60142857Y44641369D02*
X60428572Y44498512D01*
X60428572Y44498512D02*
X60857143Y44498512D01*
X60857143Y44498512D02*
X61142857Y44641369D01*
X61142857Y44641369D02*
X61285715Y44784226D01*
X62285715Y46498512D02*
X63428572Y46498512D01*
X62714286Y47498512D02*
X62714286Y44927083D01*
X62714286Y44927083D02*
X62857143Y44641369D01*
X62857143Y44641369D02*
X63142858Y44498512D01*
X63142858Y44498512D02*
X63428572Y44498512D01*
X15285714Y73652857D02*
X16285714Y70652857D01*
X16285714Y70652857D02*
X17285714Y73652857D01*
X18285714Y71795714D02*
X20571429Y71795714D01*
X23714286Y70938571D02*
X23571429Y70795714D01*
X23571429Y70795714D02*
X23142857Y70652857D01*
X23142857Y70652857D02*
X22857143Y70652857D01*
X22857143Y70652857D02*
X22428572Y70795714D01*
X22428572Y70795714D02*
X22142857Y71081428D01*
X22142857Y71081428D02*
X22000000Y71367142D01*
X22000000Y71367142D02*
X21857143Y71938571D01*
X21857143Y71938571D02*
X21857143Y72367142D01*
X21857143Y72367142D02*
X22000000Y72938571D01*
X22000000Y72938571D02*
X22142857Y73224285D01*
X22142857Y73224285D02*
X22428572Y73510000D01*
X22428572Y73510000D02*
X22857143Y73652857D01*
X22857143Y73652857D02*
X23142857Y73652857D01*
X23142857Y73652857D02*
X23571429Y73510000D01*
X23571429Y73510000D02*
X23714286Y73367142D01*
X26285715Y72652857D02*
X26285715Y70652857D01*
X25000000Y72652857D02*
X25000000Y71081428D01*
X25000000Y71081428D02*
X25142857Y70795714D01*
X25142857Y70795714D02*
X25428572Y70652857D01*
X25428572Y70652857D02*
X25857143Y70652857D01*
X25857143Y70652857D02*
X26142857Y70795714D01*
X26142857Y70795714D02*
X26285715Y70938571D01*
X27285715Y72652857D02*
X28428572Y72652857D01*
X27714286Y73652857D02*
X27714286Y71081428D01*
X27714286Y71081428D02*
X27857143Y70795714D01*
X27857143Y70795714D02*
X28142858Y70652857D01*
X28142858Y70652857D02*
X28428572Y70652857D01*
X50285714Y23498512D02*
X51285714Y20498512D01*
X51285714Y20498512D02*
X52285714Y23498512D01*
X53285714Y21641369D02*
X55571429Y21641369D01*
X58714286Y20784226D02*
X58571429Y20641369D01*
X58571429Y20641369D02*
X58142857Y20498512D01*
X58142857Y20498512D02*
X57857143Y20498512D01*
X57857143Y20498512D02*
X57428572Y20641369D01*
X57428572Y20641369D02*
X57142857Y20927083D01*
X57142857Y20927083D02*
X57000000Y21212797D01*
X57000000Y21212797D02*
X56857143Y21784226D01*
X56857143Y21784226D02*
X56857143Y22212797D01*
X56857143Y22212797D02*
X57000000Y22784226D01*
X57000000Y22784226D02*
X57142857Y23069940D01*
X57142857Y23069940D02*
X57428572Y23355655D01*
X57428572Y23355655D02*
X57857143Y23498512D01*
X57857143Y23498512D02*
X58142857Y23498512D01*
X58142857Y23498512D02*
X58571429Y23355655D01*
X58571429Y23355655D02*
X58714286Y23212797D01*
X61285715Y22498512D02*
X61285715Y20498512D01*
X60000000Y22498512D02*
X60000000Y20927083D01*
X60000000Y20927083D02*
X60142857Y20641369D01*
X60142857Y20641369D02*
X60428572Y20498512D01*
X60428572Y20498512D02*
X60857143Y20498512D01*
X60857143Y20498512D02*
X61142857Y20641369D01*
X61142857Y20641369D02*
X61285715Y20784226D01*
X62285715Y22498512D02*
X63428572Y22498512D01*
X62714286Y23498512D02*
X62714286Y20927083D01*
X62714286Y20927083D02*
X62857143Y20641369D01*
X62857143Y20641369D02*
X63142858Y20498512D01*
X63142858Y20498512D02*
X63428572Y20498512D01*
X50285714Y-501487D02*
X51285714Y-3501487D01*
X51285714Y-3501487D02*
X52285714Y-501487D01*
X53285714Y-2358630D02*
X55571429Y-2358630D01*
X58714286Y-3215773D02*
X58571429Y-3358630D01*
X58571429Y-3358630D02*
X58142857Y-3501487D01*
X58142857Y-3501487D02*
X57857143Y-3501487D01*
X57857143Y-3501487D02*
X57428572Y-3358630D01*
X57428572Y-3358630D02*
X57142857Y-3072916D01*
X57142857Y-3072916D02*
X57000000Y-2787202D01*
X57000000Y-2787202D02*
X56857143Y-2215773D01*
X56857143Y-2215773D02*
X56857143Y-1787202D01*
X56857143Y-1787202D02*
X57000000Y-1215773D01*
X57000000Y-1215773D02*
X57142857Y-930059D01*
X57142857Y-930059D02*
X57428572Y-644345D01*
X57428572Y-644345D02*
X57857143Y-501487D01*
X57857143Y-501487D02*
X58142857Y-501487D01*
X58142857Y-501487D02*
X58571429Y-644345D01*
X58571429Y-644345D02*
X58714286Y-787202D01*
X61285715Y-1501487D02*
X61285715Y-3501487D01*
X60000000Y-1501487D02*
X60000000Y-3072916D01*
X60000000Y-3072916D02*
X60142857Y-3358630D01*
X60142857Y-3358630D02*
X60428572Y-3501487D01*
X60428572Y-3501487D02*
X60857143Y-3501487D01*
X60857143Y-3501487D02*
X61142857Y-3358630D01*
X61142857Y-3358630D02*
X61285715Y-3215773D01*
X62285715Y-1501487D02*
X63428572Y-1501487D01*
X62714286Y-501487D02*
X62714286Y-3072916D01*
X62714286Y-3072916D02*
X62857143Y-3358630D01*
X62857143Y-3358630D02*
X63142858Y-3501487D01*
X63142858Y-3501487D02*
X63428572Y-3501487D01*
X-14714285Y73652857D02*
X-13714285Y70652857D01*
X-13714285Y70652857D02*
X-12714285Y73652857D01*
X-11714285Y71795714D02*
X-9428571Y71795714D01*
X-6285713Y70938571D02*
X-6428570Y70795714D01*
X-6428570Y70795714D02*
X-6857142Y70652857D01*
X-6857142Y70652857D02*
X-7142856Y70652857D01*
X-7142856Y70652857D02*
X-7571427Y70795714D01*
X-7571427Y70795714D02*
X-7857142Y71081428D01*
X-7857142Y71081428D02*
X-7999999Y71367142D01*
X-7999999Y71367142D02*
X-8142856Y71938571D01*
X-8142856Y71938571D02*
X-8142856Y72367142D01*
X-8142856Y72367142D02*
X-7999999Y72938571D01*
X-7999999Y72938571D02*
X-7857142Y73224285D01*
X-7857142Y73224285D02*
X-7571427Y73510000D01*
X-7571427Y73510000D02*
X-7142856Y73652857D01*
X-7142856Y73652857D02*
X-6857142Y73652857D01*
X-6857142Y73652857D02*
X-6428570Y73510000D01*
X-6428570Y73510000D02*
X-6285713Y73367142D01*
X-3714285Y72652857D02*
X-3714285Y70652857D01*
X-4999999Y72652857D02*
X-4999999Y71081428D01*
X-4999999Y71081428D02*
X-4857142Y70795714D01*
X-4857142Y70795714D02*
X-4571427Y70652857D01*
X-4571427Y70652857D02*
X-4142856Y70652857D01*
X-4142856Y70652857D02*
X-3857142Y70795714D01*
X-3857142Y70795714D02*
X-3714285Y70938571D01*
X-2714284Y72652857D02*
X-1571427Y72652857D01*
X-2285713Y73652857D02*
X-2285713Y71081428D01*
X-2285713Y71081428D02*
X-2142856Y70795714D01*
X-2142856Y70795714D02*
X-1857141Y70652857D01*
X-1857141Y70652857D02*
X-1571427Y70652857D01*
M02*
